<svg id="Layer_1" enable-background="new 0 0 512 512" height="512" viewBox="0 0 512 512" width="512" xmlns="http://www.w3.org/2000/svg"><g><path d="m346.578 42.421c-22.473-26.959-55.487-42.421-90.586-42.421-35.095 0-68.107 15.463-90.571 42.423l-112.814 135.377h406.786zm-169.845 116.112c-8.28 0-15-6.72-15-15s6.72-15 15-15c8.272 0 15 6.72 15 15s-6.727 15-15 15zm33.2-71.233c0-8.28 6.72-15 15-15 8.272 0 15 6.72 15 15s-6.728 15-15 15c-8.28 0-15-6.72-15-15zm31.067 71.233c-8.28 0-15-6.72-15-15s6.72-15 15-15c8.273 0 15 6.72 15 15s-6.727 15-15 15z"/><path d="m32.133 272.067h447.733c17.491 0 32.133-14.15 32.133-32.134 0-18.022-14.682-32.133-32.133-32.133h-447.733c-17.782 0-32.133 14.388-32.133 32.133 0 17.782 14.385 32.134 32.133 32.134z"/><path d="m490.703 338.406c-5.662-11.323-9.184-23.732-10.376-36.351-.154.001-.306.012-.46.012h-296.921l-28.806 28.806c-5.848 5.848-15.345 5.868-21.213 0-5.858-5.858-5.858-15.355 0-21.213l7.593-7.593h-108.387c-.154 0-.306-.01-.461-.012-1.193 12.611-4.719 25.02-10.384 36.351l-11.545 23.092c-6.374 12.757-9.743 27.037-9.743 41.303 0 60.413 48.878 109.199 109.199 109.199h293.602c60.41 0 109.199-48.906 109.199-109.199v-.008c0-14.267-3.374-28.55-9.753-41.299zm-256.23 8.534-48.2 48.2c-5.848 5.848-15.345 5.868-21.213 0-5.858-5.858-5.858-15.355 0-21.213l48.2-48.2c5.858-5.858 15.355-5.858 21.213 0s5.858 15.356 0 21.213z"/></g></svg>